<svg xmlns="http://www.w3.org/2000/svg" viewBox="0 0 24 24">
  <rect width="24" height="24" rx="6" fill="#fa5252" />
  <path
    d="M9 6.5V5.5C9 4.67157 9.67157 4 10.5 4H13.5C14.3284 4 15 4.67157 15 5.5V6.5H17.5C18.3284 6.5 19 7.17157 19 8V10.0761C19 10.4899 18.7176 10.8481 18.3167 10.9506L14.5 11.9231V11H9.5V11.9231L5.68333 10.9506C5.28245 10.8481 5 10.4899 5 10.0761V8C5 7.17157 5.67157 6.5 6.5 6.5H9ZM10.5 5.5V6.5H13.5V5.5H10.5Z"
    fill="#ffffff"
  />
  <path
    d="M9.5 12.5V13C9.5 13.5523 9.94772 14 10.5 14H13.5C14.0523 14 14.5 13.5523 14.5 13V12.5L19 11.3654V17.5C19 18.3284 18.3284 19 17.5 19H6.5C5.67157 19 5 18.3284 5 17.5V11.3654L9.5 12.5Z"
    fill="#ffffff"
  />
</svg>
